<mxfile host="app.diagrams.net" modified="2024-06-22T09:22:12.135Z" agent="Mozilla/5.0 (Windows NT 10.0; Win64; x64) AppleWebKit/537.36 (KHTML, like Gecko) Chrome/123.0.0.0 Safari/537.36 OPR/109.0.0.0" etag="gYFyCnQlCZ8Y-yznYn7s" version="24.5.1" type="github">
  <diagram name="Page-1" id="xx8izs_Su21Y6AEkTrUi">
    <mxGraphModel dx="1380" dy="741" grid="1" gridSize="10" guides="1" tooltips="1" connect="1" arrows="1" fold="1" page="1" pageScale="1" pageWidth="827" pageHeight="1169" math="0" shadow="0">
      <root>
        <mxCell id="0" />
        <mxCell id="1" parent="0" />
        <mxCell id="2B0lfYPZLkByUdDWmVQW-3" value="" style="edgeStyle=orthogonalEdgeStyle;rounded=0;orthogonalLoop=1;jettySize=auto;html=1;entryX=0.5;entryY=0;entryDx=0;entryDy=0;entryPerimeter=0;" edge="1" parent="1" source="2B0lfYPZLkByUdDWmVQW-39" target="2B0lfYPZLkByUdDWmVQW-40">
          <mxGeometry relative="1" as="geometry">
            <mxPoint x="230.77000000000004" y="173" as="sourcePoint" />
            <mxPoint x="230.6699999999999" y="240" as="targetPoint" />
          </mxGeometry>
        </mxCell>
        <mxCell id="2B0lfYPZLkByUdDWmVQW-4" value="HTTPS/JSON" style="edgeLabel;html=1;align=center;verticalAlign=middle;resizable=0;points=[];" vertex="1" connectable="0" parent="2B0lfYPZLkByUdDWmVQW-3">
          <mxGeometry x="0.0149" y="-4" relative="1" as="geometry">
            <mxPoint x="4" y="-7" as="offset" />
          </mxGeometry>
        </mxCell>
        <mxCell id="2B0lfYPZLkByUdDWmVQW-6" value="" style="edgeStyle=orthogonalEdgeStyle;rounded=0;orthogonalLoop=1;jettySize=auto;html=1;exitX=0.5;exitY=0.78;exitDx=0;exitDy=0;exitPerimeter=0;" edge="1" parent="1" source="2B0lfYPZLkByUdDWmVQW-40" target="2B0lfYPZLkByUdDWmVQW-5">
          <mxGeometry relative="1" as="geometry">
            <mxPoint x="230.7000000000001" y="328.1700000000001" as="sourcePoint" />
            <mxPoint x="260.1699999999999" y="350" as="targetPoint" />
          </mxGeometry>
        </mxCell>
        <mxCell id="2B0lfYPZLkByUdDWmVQW-20" value="HTTPS/JSON" style="edgeLabel;html=1;align=center;verticalAlign=middle;resizable=0;points=[];" vertex="1" connectable="0" parent="2B0lfYPZLkByUdDWmVQW-6">
          <mxGeometry x="0.3691" y="1" relative="1" as="geometry">
            <mxPoint as="offset" />
          </mxGeometry>
        </mxCell>
        <mxCell id="2B0lfYPZLkByUdDWmVQW-5" value="K8s Claster" style="swimlane;" vertex="1" parent="1">
          <mxGeometry x="71.13" y="350" width="318.87" height="530" as="geometry" />
        </mxCell>
        <mxCell id="2B0lfYPZLkByUdDWmVQW-8" value="User Service&lt;div&gt;Node.js, PostgreSQL&lt;/div&gt;" style="whiteSpace=wrap;html=1;" vertex="1" parent="2B0lfYPZLkByUdDWmVQW-5">
          <mxGeometry x="18.87" y="42.25" width="142.25" height="60" as="geometry" />
        </mxCell>
        <mxCell id="2B0lfYPZLkByUdDWmVQW-27" value="Payment Service&lt;div&gt;Node.js, Payment API&lt;/div&gt;" style="whiteSpace=wrap;html=1;" vertex="1" parent="2B0lfYPZLkByUdDWmVQW-5">
          <mxGeometry x="18.870000000000005" y="370" width="142.25" height="60" as="geometry" />
        </mxCell>
        <mxCell id="2B0lfYPZLkByUdDWmVQW-35" value="Notification Service&lt;div&gt;Node.js, Kafka&lt;/div&gt;" style="whiteSpace=wrap;html=1;" vertex="1" parent="2B0lfYPZLkByUdDWmVQW-5">
          <mxGeometry x="18.870000000000005" y="447.75" width="142.25" height="60" as="geometry" />
        </mxCell>
        <mxCell id="2B0lfYPZLkByUdDWmVQW-11" value="Inventory Service&lt;div&gt;Node.js, PostgreSQL&lt;/div&gt;" style="whiteSpace=wrap;html=1;" vertex="1" parent="2B0lfYPZLkByUdDWmVQW-5">
          <mxGeometry x="18.87" y="285.5" width="142.25" height="60" as="geometry" />
        </mxCell>
        <mxCell id="2B0lfYPZLkByUdDWmVQW-10" value="Order Service&lt;div&gt;Node.js, MongoDB, ES&lt;/div&gt;" style="whiteSpace=wrap;html=1;" vertex="1" parent="2B0lfYPZLkByUdDWmVQW-5">
          <mxGeometry x="18.87" y="205" width="142.25" height="60" as="geometry" />
        </mxCell>
        <mxCell id="2B0lfYPZLkByUdDWmVQW-9" value="Product Service&lt;div&gt;Node.js, PostgreSQL&lt;/div&gt;" style="whiteSpace=wrap;html=1;" vertex="1" parent="2B0lfYPZLkByUdDWmVQW-5">
          <mxGeometry x="18.87" y="120" width="142.25" height="60" as="geometry" />
        </mxCell>
        <mxCell id="2B0lfYPZLkByUdDWmVQW-12" value="Envoy Proxy ( SideCar )" style="whiteSpace=wrap;html=1;" vertex="1" parent="2B0lfYPZLkByUdDWmVQW-5">
          <mxGeometry x="161.12" y="42.25" width="142.25" height="60" as="geometry" />
        </mxCell>
        <mxCell id="2B0lfYPZLkByUdDWmVQW-47" value="Envoy Proxy ( SideCar )" style="whiteSpace=wrap;html=1;" vertex="1" parent="2B0lfYPZLkByUdDWmVQW-5">
          <mxGeometry x="161.12" y="120" width="142.25" height="60" as="geometry" />
        </mxCell>
        <mxCell id="2B0lfYPZLkByUdDWmVQW-48" value="Envoy Proxy ( SideCar )" style="whiteSpace=wrap;html=1;" vertex="1" parent="2B0lfYPZLkByUdDWmVQW-5">
          <mxGeometry x="161.12" y="205" width="142.25" height="60" as="geometry" />
        </mxCell>
        <mxCell id="2B0lfYPZLkByUdDWmVQW-49" value="Envoy Proxy ( SideCar )" style="whiteSpace=wrap;html=1;" vertex="1" parent="2B0lfYPZLkByUdDWmVQW-5">
          <mxGeometry x="161.12" y="285.5" width="142.25" height="60" as="geometry" />
        </mxCell>
        <mxCell id="2B0lfYPZLkByUdDWmVQW-32" value="Ambassador Proxy (Payment)" style="whiteSpace=wrap;html=1;" vertex="1" parent="2B0lfYPZLkByUdDWmVQW-5">
          <mxGeometry x="161.12" y="370" width="142.25" height="60" as="geometry" />
        </mxCell>
        <mxCell id="2B0lfYPZLkByUdDWmVQW-37" value="Ambassador Proxy (Notifications)" style="whiteSpace=wrap;html=1;" vertex="1" parent="2B0lfYPZLkByUdDWmVQW-5">
          <mxGeometry x="161.12" y="447.75" width="142.25" height="60" as="geometry" />
        </mxCell>
        <mxCell id="2B0lfYPZLkByUdDWmVQW-39" value="" style="sketch=0;outlineConnect=0;fontColor=#232F3E;gradientColor=none;fillColor=#E7157B;strokeColor=none;dashed=0;verticalLabelPosition=bottom;verticalAlign=top;align=center;html=1;fontSize=12;fontStyle=0;aspect=fixed;pointerEvents=1;shape=mxgraph.aws4.endpoint;" vertex="1" parent="1">
          <mxGeometry x="191.57" y="150" width="78" height="78" as="geometry" />
        </mxCell>
        <mxCell id="2B0lfYPZLkByUdDWmVQW-40" value="" style="verticalLabelPosition=bottom;html=1;verticalAlign=top;align=center;strokeColor=none;fillColor=#00BEF2;shape=mxgraph.azure.load_balancer_generic;pointerEvents=1;" vertex="1" parent="1">
          <mxGeometry x="211.82" y="270" width="37.5" height="50" as="geometry" />
        </mxCell>
      </root>
    </mxGraphModel>
  </diagram>
</mxfile>
